<svg xmlns="http://www.w3.org/2000/svg" xmlns:xlink="http://www.w3.org/1999/xlink" version="1.1" id="Layer_1" x="0px" y="0px" enable-background="new 377.5 91.904 224.174 224.596" xml:space="preserve" viewBox="399.01 91.9 202.66 217.75">
<g id="Layer_2" display="none">
</g>
<g id="Layer_1_1_">
	<g>
		
			<linearGradient id="SVGID_1_" gradientUnits="userSpaceOnUse" x1="374.4259" y1="218.071" x2="579.5967" y2="394.1833" gradientTransform="matrix(1 0 0 -1 0 501)">
			<stop offset="0" style="stop-color:#703FEC"/>
			<stop offset="1" style="stop-color:#00B9E4"/>
		</linearGradient>
		<path fill="url(#SVGID_1_)" d="M399.01,91.904l49.676,13.312l2.569,29.659c24.265-16.749,50.728-21.3,79.388-13.622    c76.698,20.581,94.891,117.194,36.8,165.91c-58.372,48.833-150.315,14.113-157.229-65.355L399.01,91.904z M459.797,201.53    c-7.437,27.842,9.557,51.703,33.736,58.203c29.014,7.784,52.07-11.452,57.97-33.622c7.669-28.476-11.46-52.24-33.396-58.11    C492.792,161.208,466.689,175.711,459.797,201.53L459.797,201.53z"/>
	</g>
</g>
</svg>